<?xml version="1.0" encoding="UTF-8"?>
<svg width="413px" height="260px" viewBox="0 0 413 260" version="1.1" xmlns="http://www.w3.org/2000/svg" xmlns:xlink="http://www.w3.org/1999/xlink">
    <!-- Generator: Sketch 48.2 (47327) - http://www.bohemiancoding.com/sketch -->
    <title>The Ethical Tree Copy 3</title>
    <desc>Created with Sketch.</desc>
    <defs>
        <polygon id="path-1" points="0.0276756757 32.7431229 0.0276756757 0.046642984 36.3815964 0.046642984 36.3815964 32.7431229 0.0276756757 32.7431229"></polygon>
        <path d="M63.0594883,107.309343 C63.0594883,107.309343 54.8342775,54.9662167 75.6772901,0.393001776 C75.6772901,0.393001776 66.2777081,51.8757726 70.0595892,65.5661812 C70.0595892,65.5661812 85.2539964,62.20373 90.9764036,54.1201776 C96.697427,46.0384725 104.571157,25.7598579 114.423236,25.945968 C114.423236,25.945968 105.155114,28.6826643 101.835877,42.632611 C98.5171027,56.5825577 84.4901477,71.2667851 72.5277982,73.2110124 L69.6361514,73.6261812 C69.6361514,73.6261812 65.934991,101.179716 75.1385369,118.459787 C84.3388541,135.739858 85.3171892,141.31762 93.9999712,153.091972 C93.9999712,153.091972 115.540411,153.762984 132.075705,135.952753 C148.607308,118.140675 175.677348,70.5288099 196.262977,62.2088099 C196.262977,62.2088099 181.176505,72.54 172.772786,89.5512966 C164.369528,106.56444 153.151193,126.416803 145.009009,133.106146 C145.009009,133.106146 160.399914,142.672575 179.711539,130.966572 C199.02178,119.260568 209.760404,112.522735 223.6416,116.899325 C223.6416,116.899325 207.356771,112.838615 189.868512,130.731972 C172.378407,148.623481 153.081081,145.726536 143.902905,142.820355 L140.07951,141.729094 C140.07951,141.729094 129.917002,157.984405 102.700742,169.111297 C102.700742,169.111297 110.174559,196.193783 109.937009,215.231048 C110.89182,219.396128 113.774703,222.816767 122.760533,222.277371 C138.599784,221.324654 147.023337,228.621741 158.180324,231.876128 C169.33685,235.130515 174.800029,231.049947 174.800029,231.049947 C165.29205,242.326465 155.965809,236.643872 137.857614,229.857549 C119.74942,223.070764 113.699056,234.264618 113.699056,234.264618 C109.434234,240.435808 121.756829,243.045968 121.756829,243.045968 C121.756829,243.045968 103.700757,246.105471 101.612627,233.55389 C100.900901,229.282131 94.3514523,228.107744 91.1839712,228.333108 C84.5044468,228.812931 81.3568,234.782309 69.1836541,230.881847 C57.0109694,226.981847 31.7011027,236.975915 31.7011027,236.975915 C44.801845,223.291048 55.7692541,223.648028 65.2684685,224.003623 C70.0199207,224.180497 74.4019027,224.358757 78.4992865,222.780284 C85.1820396,220.206146 88.0736865,215.31556 89.3241658,211.386927 C90.4164324,201.106075 91.2863712,181.109165 83.9223351,167.359645 C83.4702991,166.513606 83.0344072,165.68373 82.596209,164.855702 C59.4252108,172.809023 47.338782,167.233108 35.0143423,160.23389 C22.1064072,152.900782 6.33680721,163.080497 6.33680721,163.080497 C17.3983135,153.905684 27.0538955,148.807744 48.2866739,159.757762 C58.7134847,165.136945 72.0379387,158.875702 78.0790775,155.958437 C71.3082234,142.08238 67.0683099,130.546323 64.5064649,119.441137 C64.5064649,119.441137 39.6324901,111.749201 26.7494631,91.0452575 C16.4218234,74.4468206 7.1025009,58.1610302 0.254154955,52.1898046 C6.72795676,56.6074956 19.6128288,68.9267851 27.1692108,81.924476 L63.0594883,107.309343 Z" id="path-3"></path>
    </defs>
    <g id="Components" stroke="none" stroke-width="1" fill="none" fill-rule="evenodd" transform="translate(-1327.000000, -2671.000000)">
        <g id="The-Ethical-Tree-Copy-3" transform="translate(1320.000000, 2671.000000)">
            <g id="Group" transform="translate(157.000000, 0.000000)">
                <path d="M67.063236,211.478112 C67.2648072,211.378612 67.4451604,211.273112 67.6199784,211.179112 C67.4253261,211.251612 67.236209,211.345612 67.063236,211.478112" id="Fill-1" fill="#67B044"></path>
                <path d="M118.513701,233.14611 C118.146076,232.99833 117.789059,232.830231 117.448649,232.639041 C117.753081,232.845009 118.093492,233.025115 118.513701,233.14611" id="Fill-2" fill="#67B044"></path>
                <path d="M44.8179892,199.224601 C44.8279892,199.218601 44.8279892,199.209101 44.8299892,199.201101 C44.8709892,199.220601 44.9099892,199.242101 44.9509892,199.261601 C44.9039892,199.248101 44.8629892,199.236101 44.8179892,199.224601" id="Fill-3" fill="#67B044"></path>
                <path d="M139.589189,177.990089 C139.589189,177.990089 166.140771,161.148739 181.228627,189.836945 C181.228627,189.836945 156.976432,206.519893 139.589189,177.990089" id="Fill-4" fill="#6A9E3E"></path>
                <path d="M133.328029,160.125826 C133.328029,160.125826 108.29169,138.835382 132.192865,114.850266 C132.192865,114.850266 156.358342,133.892611 133.328029,160.125826" id="Fill-5" fill="#6A9E3E"></path>
                <path d="M66.7403532,210.737158 C66.7403532,210.737158 66.3782631,185.011012 92.7928505,186.760817 C92.7928505,186.760817 94.0304144,210.812895 66.7403532,210.737158" id="Fill-6" fill="#6A9E3E"></path>
                <path d="M74.1316036,137.967638 C74.1316036,137.967638 55.9639063,165.366004 29.356973,144.433002 C29.356973,144.433002 45.3945658,118.163766 74.1316036,137.967638" id="Fill-7" fill="#6A9E3E"></path>
                <path d="M88.8052468,166.652611 C88.8052468,166.652611 70.0937225,182.93286 54.9371387,162.353606 C54.9371387,162.353606 71.8737297,146.467744 88.8052468,166.652611" id="Fill-8" fill="#6A9E3E"></path>
                <path d="M101.106162,90.5381883 C101.106162,90.5381883 118.180209,71.7752398 136.01995,90.8739254 C136.01995,90.8739254 120.701002,109.024973 101.106162,90.5381883" id="Fill-9" fill="#6A9E3E"></path>
                <path d="M64.2702991,112.795204 C64.2702991,112.795204 48.0108396,93.3233748 69.3206486,78.2101243 C69.3206486,78.2101243 85.2124829,95.8564121 64.2702991,112.795204" id="Fill-10" fill="#6A9E3E"></path>
                <path d="M50.0145586,117.223979 C50.0145586,117.223979 32.8108973,135.865933 15.1063063,116.64302 C15.1063063,116.64302 30.5493333,98.6000355 50.0145586,117.223979" id="Fill-11" fill="#6A9E3E"></path>
                <path d="M48.2576144,92.7461101 C48.2576144,92.7461101 31.5082955,79.0686323 46.9153441,62.974032 C46.9153441,62.974032 63.0650234,75.1811012 48.2576144,92.7461101" id="Fill-12" fill="#6A9E3E"></path>
                <path d="M93.6614054,127.291936 C93.6614054,127.291936 86.9837261,106.708988 108.643171,101.538544 C108.643171,101.538544 115.610984,120.561492 93.6614054,127.291936" id="Fill-13" fill="#6A9E3E"></path>
                <path d="M102.672144,149.895311 C102.672144,149.895311 94.8288577,134.233428 111.537124,127.459574 C111.537124,127.459574 119.421463,141.837158 102.672144,149.895311" id="Fill-14" fill="#6A9E3E"></path>
                <path d="M36.298955,94.0918295 C36.298955,94.0918295 23.7332757,111.702096 6.70812252,97.3337478 C6.70812252,97.3337478 17.8466595,80.4198934 36.298955,94.0918295" id="Fill-15" fill="#6A9E3E"></path>
                <g id="Group-19" transform="translate(0.000000, 51.722913)">
                    <mask id="mask-2" fill="white">
                        <use xlink:href="#path-1"></use>
                    </mask>
                    <g id="Clip-17"></g>
                    <path d="M33.4848,23.9832682 C33.4848,23.9832682 17.6017297,15.6942096 27.4109117,0.046642984 C27.4109117,0.046642984 42.5605766,7.2444405 33.4848,23.9832682" id="Fill-16" fill="#6A9E3E" mask="url(#mask-2)"></path>
                    <path d="M24.5907604,27.7608881 C24.5907604,27.7608881 11.652382,40.1609947 0,25.8360568 C0,25.8360568 11.6722162,13.7836945 24.5907604,27.7608881" id="Fill-18" fill="#6A9E3E" mask="url(#mask-2)"></path>
                </g>
                <path d="M119.452368,69.4643339 C119.452368,69.4643339 133.160591,54.3995737 147.482753,69.7331083 C147.482753,69.7331083 135.185528,84.3074245 119.452368,69.4643339" id="Fill-20" fill="#6A9E3E"></path>
                <path d="M132.007438,54.5639787 C132.007438,54.5639787 140.493723,40.4080639 154.313571,50.2954529 C154.313571,50.2954529 146.872043,63.8362345 132.007438,54.5639787" id="Fill-21" fill="#6A9E3E"></path>
                <path d="M29.5368649,158.709449 C29.5368649,158.709449 41.7621333,154.257584 45.322609,167.191545 C45.322609,167.191545 34.0415423,171.784725 29.5368649,158.709449" id="Fill-22" fill="#6A9E3E"></path>
                <path d="M16.7945225,171.979609 C16.7945225,171.979609 23.9800505,164.453464 31.1079207,172.459432 C31.1079207,172.459432 24.6502631,179.750977 16.7945225,171.979609" id="Fill-23" fill="#6A9E3E"></path>
                <path d="M27.2107243,192.594885 C27.2107243,192.594885 23.2632505,182.961954 33.4668108,179.698792 C33.4668108,179.698792 37.4954667,188.56881 27.2107243,192.594885" id="Fill-24" fill="#6A9E3E"></path>
                <path d="M241.47396,133.54071 C241.47396,133.54071 248.659488,126.014565 255.785514,134.018686 C255.785514,134.018686 249.329701,141.312078 241.47396,133.54071" id="Fill-25" fill="#6A9E3E"></path>
                <g id="Group-29" transform="translate(90.868468, 0.000000)" fill="#6A9E3E">
                    <path d="M124.091733,78.3560568 C124.091733,78.3560568 126.239827,68.1694139 136.509809,71.217833 C136.509809,71.217833 134.855726,80.8221314 124.091733,78.3560568" id="Fill-26"></path>
                    <path d="M2.37457297,14.2528952 C2.37457297,14.2528952 -3.85937297,5.91673179 5.20164324,0.198117229 C5.20164324,0.198117229 11.3225802,7.77460036 2.37457297,14.2528952" id="Fill-28"></path>
                </g>
                <path d="M17.7115099,67.5431972 C17.7115099,67.5431972 7.32252252,67.0739964 8.6611027,56.4343162 C8.6611027,56.4343162 18.3927928,56.5086679 17.7115099,67.5431972" id="Fill-30" fill="#6A9E3E"></path>
                <path d="M91.0612757,70.2438721 C91.0612757,70.2438721 91.0091532,44.7306217 117.180195,46.7759858 C117.180195,46.7759858 118.122551,70.6424156 91.0612757,70.2438721" id="Fill-31" fill="#6A9E3E"></path>
                <path d="M78.5062054,71.2109059 C78.5062054,71.2109059 50.1944505,71.831119 51.8900468,42.6723268 C51.8900468,42.6723268 78.3530667,41.097087 78.5062054,71.2109059" id="Fill-32" fill="#6A9E3E"></path>
                <path d="M93.0271712,43.5488455 C93.0271712,43.5488455 92.9838126,22.6121492 114.461059,24.2899112 C114.461059,24.2899112 115.234133,43.8771936 93.0271712,43.5488455" id="Fill-33" fill="#6A9E3E"></path>
                <path d="M97.4234523,18.9412078 C97.4234523,18.9412078 97.3874739,1.64312611 115.131733,3.03040853 C115.131733,3.03040853 115.771041,19.2118295 97.4234523,18.9412078" id="Fill-34" fill="#6A9E3E"></path>
                <path d="M88.381809,22.1595737 C88.381809,22.1595737 72.7893333,19.7115098 76.5836685,3.8801421 C76.5836685,3.8801421 91.2559279,5.62440497 88.381809,22.1595737" id="Fill-35" fill="#6A9E3E"></path>
                <path d="M84.695409,46.7815275 C84.695409,46.7815275 62.331618,43.2726821 67.7749622,20.5700178 C67.7749622,20.5700178 88.8181622,23.0702664 84.695409,46.7815275" id="Fill-36" fill="#6A9E3E"></path>
                <path d="M179.273802,163.215808 C179.273802,163.215808 204.491877,154.244654 211.617903,180.909201 C211.617903,180.909201 188.338508,190.185151 179.273802,163.215808" id="Fill-37" fill="#6A9E3E"></path>
                <path d="M203.875632,151.79151 C203.875632,151.79151 222.065009,141.104725 231.527784,160.686927 C231.527784,160.686927 214.884555,171.321066 203.875632,151.79151" id="Fill-38" fill="#6A9E3E"></path>
                <path d="M225.083041,138.544902 C225.083041,138.544902 238.886285,130.438259 246.064894,145.295204 C246.064894,145.295204 233.436022,153.366288 225.083041,138.544902" id="Fill-39" fill="#6A9E3E"></path>
                <path d="M222.048865,132.799503 C222.048865,132.799503 216.855986,117.644227 232.825312,113.553037 C232.825312,113.553037 238.212843,127.550089 222.048865,132.799503" id="Fill-40" fill="#6A9E3E"></path>
                <path d="M176.342486,137.310941 C176.342486,137.310941 184.917333,113.233925 208.904303,124.030622 C208.904303,124.030622 201.728,146.855666 176.342486,137.310941" id="Fill-41" fill="#6A9E3E"></path>
                <path d="M160.499085,132.352007 C160.499085,132.352007 139.917146,117.22952 157.122652,97.3138899 C157.122652,97.3138899 176.906148,110.740604 160.499085,132.352007" id="Fill-42" fill="#6A9E3E"></path>
                <path d="M191.255986,110.268171 C191.255986,110.268171 201.304562,90.7367673 220.510097,102.675062 C220.510097,102.675062 211.794566,121.299005 191.255986,110.268171" id="Fill-43" fill="#6A9E3E"></path>
                <path d="M182.538609,104.650693 C182.538609,104.650693 163.794796,93.2259325 177.056058,74.8980107 C177.056058,74.8980107 194.988973,84.9280995 182.538609,104.650693" id="Fill-44" fill="#6A9E3E"></path>
                <path d="M208.273759,89.2594316 C208.273759,89.2594316 218.454256,75.6013499 231.623265,87.1900533 C231.623265,87.1900533 222.578393,100.32444 208.273759,89.2594316" id="Fill-45" fill="#6A9E3E"></path>
                <path d="M198.237636,86.7407105 C198.237636,86.7407105 186.046962,74.8490586 199.246876,63.2931439 C199.246876,63.2931439 211.066695,73.9923979 198.237636,86.7407105" id="Fill-46" fill="#6A9E3E"></path>
                <g id="Group-49" transform="translate(18.911712, 16.625222)">
                    <mask id="mask-4" fill="white">
                        <use xlink:href="#path-3"></use>
                    </mask>
                    <g id="Clip-48"></g>
                    <path d="M27.1692108,81.924476 C19.6128288,68.9267851 6.72795676,56.6074956 0.254154955,52.1898046 C7.1025009,58.1610302 16.4218234,74.4468206 26.7494631,91.0452575 C39.6324901,111.749201 64.5064649,119.441137 64.5064649,119.441137 C67.0683099,130.546323 71.3082234,142.08238 78.0790775,155.958437 C72.0379387,158.875702 58.7134847,165.136945 48.2866739,159.757762 C27.0538955,148.807744 17.3983135,153.905684 6.33680721,163.080497 C6.33680721,163.080497 22.1064072,152.900782 35.0143423,160.23389 C47.338782,167.233108 59.4252108,172.809485 82.596209,164.855702 C83.0344072,165.68373 83.4702991,166.513606 83.9223351,167.359645 C91.2863712,181.109165 90.4164324,201.106075 89.3241658,211.386927 C88.0736865,215.31556 85.1820396,220.206146 78.4992865,222.780746 C74.4019027,224.359218 70.0199207,224.180497 65.2684685,224.003623 C55.7692541,223.648028 44.801845,223.291048 31.7011027,236.975915 C31.7011027,236.975915 57.0109694,226.981847 69.1836541,230.882309 C81.3568,234.782309 84.5044468,228.812931 91.1839712,228.333108 C94.3514523,228.107744 100.900901,229.282131 101.612627,233.55389 C103.700757,246.105471 121.756829,243.045968 121.756829,243.045968 C121.756829,243.045968 109.434234,240.435808 113.699056,234.264618 C113.699056,234.264618 119.74942,223.070764 137.857614,229.857549 C155.965809,236.643872 165.29205,242.326465 174.800029,231.049947 C174.800029,231.049947 169.33685,235.130515 158.180324,231.876128 C147.023337,228.621741 138.599784,221.324654 122.760533,222.277371 C113.774703,222.816767 110.89182,219.396128 109.937009,215.231048 C110.174559,196.193783 102.700742,169.111297 102.700742,169.111297 C129.917002,157.984405 140.07951,141.729094 140.07951,141.729094 L143.902905,142.820355 C153.081081,145.726536 172.378407,148.623481 189.868512,130.731972 C207.356771,112.838615 223.6416,116.899325 223.6416,116.899325 C209.760404,112.523197 199.02178,119.260568 179.711539,130.966572 C160.399914,142.672575 145.009009,133.106146 145.009009,133.106146 C153.151193,126.416803 164.369528,106.56444 172.772786,89.5512966 C181.176505,72.54 196.262977,62.2088099 196.262977,62.2088099 C175.677348,70.5288099 148.607308,118.140675 132.075705,135.952753 C115.540411,153.762984 93.9999712,153.091972 93.9999712,153.091972 C85.3171892,141.31762 84.3388541,135.739858 75.1385369,118.459787 C65.934991,101.179716 69.6361514,73.6261812 69.6361514,73.6261812 L72.5277982,73.2114742 C84.4901477,71.2667851 98.5171027,56.5825577 101.835877,42.632611 C105.155114,28.6826643 114.423236,25.945968 114.423236,25.945968 C104.571157,25.7603197 96.697427,46.0384725 90.9764036,54.1201776 C85.2539964,62.20373 70.0595892,65.5661812 70.0595892,65.5661812 C66.2777081,51.8757726 75.6772901,0.393001776 75.6772901,0.393001776 C54.8342775,54.9662167 63.0594883,107.309805 63.0594883,107.309805 C63.0594883,107.309805 38.2108829,100.916483 27.1692108,81.924476 Z" id="Fill-47" fill="#5F3818" mask="url(#mask-4)"></path>
                </g>
            </g>
            <text id="ree" font-family="Lato-Light, Lato" font-size="75" font-weight="300" fill="#5F3818">
                <tspan x="317" y="236">ree</tspan>
            </text>
            <text id="Ethical" font-family="Lato-Light, Lato" font-size="75" font-weight="300" fill="#6A9E3E">
                <tspan x="0" y="236">Ethical</tspan>
            </text>
        </g>
    </g>
</svg>