<?xml version="1.0" encoding="UTF-8"?>
<svg width="413px" height="260px" viewBox="0 0 413 260" version="1.1" xmlns="http://www.w3.org/2000/svg" xmlns:xlink="http://www.w3.org/1999/xlink">
    <!-- Generator: Sketch 48.2 (47327) - http://www.bohemiancoding.com/sketch -->
    <title>The Ethical Tree Copy 3</title>
    <desc>Created with Sketch.</desc>
    <defs>
        <polygon id="path-1" points="0.0276756757 32.7431229 0.0276756757 0.046642984 36.3815964 0.046642984 36.3815964 32.7431229 0.0276756757 32.7431229"></polygon>
        <path d="M63.0594883,107.309343 C63.0594883,107.309343 54.8342775,54.9662167 75.6772901,0.393001776 C75.6772901,0.393001776 66.2777081,51.8757726 70.0595892,65.5661812 C70.0595892,65.5661812 85.2539964,62.20373 90.9764036,54.1201776 C96.697427,46.0384725 104.571157,25.7598579 114.423236,25.945968 C114.423236,25.945968 105.155114,28.6826643 101.835877,42.632611 C98.5171027,56.5825577 84.4901477,71.2667851 72.5277982,73.2110124 L69.6361514,73.6261812 C69.6361514,73.6261812 65.934991,101.179716 75.1385369,118.459787 C84.3388541,135.739858 85.3171892,141.31762 93.9999712,153.091972 C93.9999712,153.091972 115.540411,153.762984 132.075705,135.952753 C148.607308,118.140675 175.677348,70.5288099 196.262977,62.2088099 C196.262977,62.2088099 181.176505,72.54 172.772786,89.5512966 C164.369528,106.56444 153.151193,126.416803 145.009009,133.106146 C145.009009,133.106146 160.399914,142.672575 179.711539,130.966572 C199.02178,119.260568 209.760404,112.522735 223.6416,116.899325 C223.6416,116.899325 207.356771,112.838615 189.868512,130.731972 C172.378407,148.623481 153.081081,145.726536 143.902905,142.820355 L140.07951,141.729094 C140.07951,141.729094 129.917002,157.984405 102.700742,169.111297 C102.700742,169.111297 110.174559,196.193783 109.937009,215.231048 C110.89182,219.396128 113.774703,222.816767 122.760533,222.277371 C138.599784,221.324654 147.023337,228.621741 158.180324,231.876128 C169.33685,235.130515 174.800029,231.049947 174.800029,231.049947 C165.29205,242.326465 155.965809,236.643872 137.857614,229.857549 C119.74942,223.070764 113.699056,234.264618 113.699056,234.264618 C109.434234,240.435808 121.756829,243.045968 121.756829,243.045968 C121.756829,243.045968 103.700757,246.105471 101.612627,233.55389 C100.900901,229.282131 94.3514523,228.107744 91.1839712,228.333108 C84.5044468,228.812931 81.3568,234.782309 69.1836541,230.881847 C57.0109694,226.981847 31.7011027,236.975915 31.7011027,236.975915 C44.801845,223.291048 55.7692541,223.648028 65.2684685,224.003623 C70.0199207,224.180497 74.4019027,224.358757 78.4992865,222.780284 C85.1820396,220.206146 88.0736865,215.31556 89.3241658,211.386927 C90.4164324,201.106075 91.2863712,181.109165 83.9223351,167.359645 C83.4702991,166.513606 83.0344072,165.68373 82.596209,164.855702 C59.4252108,172.809023 47.338782,167.233108 35.0143423,160.23389 C22.1064072,152.900782 6.33680721,163.080497 6.33680721,163.080497 C17.3983135,153.905684 27.0538955,148.807744 48.2866739,159.757762 C58.7134847,165.136945 72.0379387,158.875702 78.0790775,155.958437 C71.3082234,142.08238 67.0683099,130.546323 64.5064649,119.441137 C64.5064649,119.441137 39.6324901,111.749201 26.7494631,91.0452575 C16.4218234,74.4468206 7.1025009,58.1610302 0.254154955,52.1898046 C6.72795676,56.6074956 19.6128288,68.9267851 27.1692108,81.924476 L63.0594883,107.309343 Z" id="path-3"></path>
    </defs>
    <g id="Components" stroke="none" stroke-width="1" fill="none" fill-rule="evenodd" transform="translate(-1327.000000, -2671.000000)">
        <g id="The-Ethical-Tree-Copy-3" transform="translate(1327.000000, 2671.000000)">
            <g id="Group" transform="translate(150.000000, 0.000000)">
                <path d="M67.063236,211.478112 C67.2648072,211.378612 67.4451604,211.273112 67.6199784,211.179112 C67.4253261,211.251612 67.236209,211.345612 67.063236,211.478112" id="Fill-1" fill="#67B044"></path>
                <path d="M118.513701,233.14611 C118.146076,232.99833 117.789059,232.830231 117.448649,232.639041 C117.753081,232.845009 118.093492,233.025115 118.513701,233.14611" id="Fill-2" fill="#67B044"></path>
                <path d="M44.8179892,199.224601 C44.8279892,199.218601 44.8279892,199.209101 44.8299892,199.201101 C44.8709892,199.220601 44.9099892,199.242101 44.9509892,199.261601 C44.9039892,199.248101 44.8629892,199.236101 44.8179892,199.224601" id="Fill-3" fill="#67B044"></path>
                <path d="M139.589189,177.990089 C139.589189,177.990089 166.140771,161.148739 181.228627,189.836945 C181.228627,189.836945 156.976432,206.519893 139.589189,177.990089" id="Fill-4" fill="#6A9E3E"></path>
                <path d="M133.328029,160.125826 C133.328029,160.125826 108.29169,138.835382 132.192865,114.850266 C132.192865,114.850266 156.358342,133.892611 133.328029,160.125826" id="Fill-5" fill="#6A9E3E"></path>
                <path d="M66.7403532,210.737158 C66.7403532,210.737158 66.3782631,185.011012 92.7928505,186.760817 C92.7928505,186.760817 94.0304144,210.812895 66.7403532,210.737158" id="Fill-6" fill="#6A9E3E"></path>
                <path d="M74.1316036,137.967638 C74.1316036,137.967638 55.9639063,165.366004 29.356973,144.433002 C29.356973,144.433002 45.3945658,118.163766 74.1316036,137.967638" id="Fill-7" fill="#6A9E3E"></path>
                <path d="M88.8052468,166.652611 C88.8052468,166.652611 70.0937225,182.93286 54.9371387,162.353606 C54.9371387,162.353606 71.8737297,146.467744 88.8052468,166.652611" id="Fill-8" fill="#6A9E3E"></path>
                <path d="M101.106162,90.5381883 C101.106162,90.5381883 118.180209,71.7752398 136.01995,90.8739254 C136.01995,90.8739254 120.701002,109.024973 101.106162,90.5381883" id="Fill-9" fill="#6A9E3E"></path>
                <path d="M64.2702991,112.795204 C64.2702991,112.795204 48.0108396,93.3233748 69.3206486,78.2101243 C69.3206486,78.2101243 85.2124829,95.8564121 64.2702991,112.795204" id="Fill-10" fill="#6A9E3E"></path>
                <path d="M50.0145586,117.223979 C50.0145586,117.223979 32.8108973,135.865933 15.1063063,116.64302 C15.1063063,116.64302 30.5493333,98.6000355 50.0145586,117.223979" id="Fill-11" fill="#6A9E3E"></path>
                <path d="M48.2576144,92.7461101 C48.2576144,92.7461101 31.5082955,79.0686323 46.9153441,62.974032 C46.9153441,62.974032 63.0650234,75.1811012 48.2576144,92.7461101" id="Fill-12" fill="#6A9E3E"></path>
                <path d="M93.6614054,127.291936 C93.6614054,127.291936 86.9837261,106.708988 108.643171,101.538544 C108.643171,101.538544 115.610984,120.561492 93.6614054,127.291936" id="Fill-13" fill="#6A9E3E"></path>
                <path d="M102.672144,149.895311 C102.672144,149.895311 94.8288577,134.233428 111.537124,127.459574 C111.537124,127.459574 119.421463,141.837158 102.672144,149.895311" id="Fill-14" fill="#6A9E3E"></path>
                <path d="M36.298955,94.0918295 C36.298955,94.0918295 23.7332757,111.702096 6.70812252,97.3337478 C6.70812252,97.3337478 17.8466595,80.4198934 36.298955,94.0918295" id="Fill-15" fill="#6A9E3E"></path>
                <g id="Group-19" transform="translate(0.000000, 51.722913)">
                    <mask id="mask-2" fill="white">
                        <use xlink:href="#path-1"></use>
                    </mask>
                    <g id="Clip-17"></g>
                    <path d="M33.4848,23.9832682 C33.4848,23.9832682 17.6017297,15.6942096 27.4109117,0.046642984 C27.4109117,0.046642984 42.5605766,7.2444405 33.4848,23.9832682" id="Fill-16" fill="#6A9E3E" mask="url(#mask-2)"></path>
                    <path d="M24.5907604,27.7608881 C24.5907604,27.7608881 11.652382,40.1609947 0,25.8360568 C0,25.8360568 11.6722162,13.7836945 24.5907604,27.7608881" id="Fill-18" fill="#6A9E3E" mask="url(#mask-2)"></path>
                </g>
                <path d="M119.452368,69.4643339 C119.452368,69.4643339 133.160591,54.3995737 147.482753,69.7331083 C147.482753,69.7331083 135.185528,84.3074245 119.452368,69.4643339" id="Fill-20" fill="#6A9E3E"></path>
                <path d="M132.007438,54.5639787 C132.007438,54.5639787 140.493723,40.4080639 154.313571,50.2954529 C154.313571,50.2954529 146.872043,63.8362345 132.007438,54.5639787" id="Fill-21" fill="#6A9E3E"></path>
                <path d="M29.5368649,158.709449 C29.5368649,158.709449 41.7621333,154.257584 45.322609,167.191545 C45.322609,167.191545 34.0415423,171.784725 29.5368649,158.709449" id="Fill-22" fill="#6A9E3E"></path>
                <path d="M16.7945225,171.979609 C16.7945225,171.979609 23.9800505,164.453464 31.1079207,172.459432 C31.1079207,172.459432 24.6502631,179.750977 16.7945225,171.979609" id="Fill-23" fill="#6A9E3E"></path>
                <path d="M27.2107243,192.594885 C27.2107243,192.594885 23.2632505,182.961954 33.4668108,179.698792 C33.4668108,179.698792 37.4954667,188.56881 27.2107243,192.594885" id="Fill-24" fill="#6A9E3E"></path>
                <path d="M241.47396,133.54071 C241.47396,133.54071 248.659488,126.014565 255.785514,134.018686 C255.785514,134.018686 249.329701,141.312078 241.47396,133.54071" id="Fill-25" fill="#6A9E3E"></path>
                <g id="Group-29" transform="translate(90.868468, 0.000000)" fill="#6A9E3E">
                    <path d="M124.091733,78.3560568 C124.091733,78.3560568 126.239827,68.1694139 136.509809,71.217833 C136.509809,71.217833 134.855726,80.8221314 124.091733,78.3560568" id="Fill-26"></path>
                    <path d="M2.37457297,14.2528952 C2.37457297,14.2528952 -3.85937297,5.91673179 5.20164324,0.198117229 C5.20164324,0.198117229 11.3225802,7.77460036 2.37457297,14.2528952" id="Fill-28"></path>
                </g>
                <path d="M17.7115099,67.5431972 C17.7115099,67.5431972 7.32252252,67.0739964 8.6611027,56.4343162 C8.6611027,56.4343162 18.3927928,56.5086679 17.7115099,67.5431972" id="Fill-30" fill="#6A9E3E"></path>
                <path d="M91.0612757,70.2438721 C91.0612757,70.2438721 91.0091532,44.7306217 117.180195,46.7759858 C117.180195,46.7759858 118.122551,70.6424156 91.0612757,70.2438721" id="Fill-31" fill="#6A9E3E"></path>
                <path d="M78.5062054,71.2109059 C78.5062054,71.2109059 50.1944505,71.831119 51.8900468,42.6723268 C51.8900468,42.6723268 78.3530667,41.097087 78.5062054,71.2109059" id="Fill-32" fill="#6A9E3E"></path>
                <path d="M93.0271712,43.5488455 C93.0271712,43.5488455 92.9838126,22.6121492 114.461059,24.2899112 C114.461059,24.2899112 115.234133,43.8771936 93.0271712,43.5488455" id="Fill-33" fill="#6A9E3E"></path>
                <path d="M97.4234523,18.9412078 C97.4234523,18.9412078 97.3874739,1.64312611 115.131733,3.03040853 C115.131733,3.03040853 115.771041,19.2118295 97.4234523,18.9412078" id="Fill-34" fill="#6A9E3E"></path>
                <path d="M88.381809,22.1595737 C88.381809,22.1595737 72.7893333,19.7115098 76.5836685,3.8801421 C76.5836685,3.8801421 91.2559279,5.62440497 88.381809,22.1595737" id="Fill-35" fill="#6A9E3E"></path>
                <path d="M84.695409,46.7815275 C84.695409,46.7815275 62.331618,43.2726821 67.7749622,20.5700178 C67.7749622,20.5700178 88.8181622,23.0702664 84.695409,46.7815275" id="Fill-36" fill="#6A9E3E"></path>
                <path d="M179.273802,163.215808 C179.273802,163.215808 204.491877,154.244654 211.617903,180.909201 C211.617903,180.909201 188.338508,190.185151 179.273802,163.215808" id="Fill-37" fill="#6A9E3E"></path>
                <path d="M203.875632,151.79151 C203.875632,151.79151 222.065009,141.104725 231.527784,160.686927 C231.527784,160.686927 214.884555,171.321066 203.875632,151.79151" id="Fill-38" fill="#6A9E3E"></path>
                <path d="M225.083041,138.544902 C225.083041,138.544902 238.886285,130.438259 246.064894,145.295204 C246.064894,145.295204 233.436022,153.366288 225.083041,138.544902" id="Fill-39" fill="#6A9E3E"></path>
                <path d="M222.048865,132.799503 C222.048865,132.799503 216.855986,117.644227 232.825312,113.553037 C232.825312,113.553037 238.212843,127.550089 222.048865,132.799503" id="Fill-40" fill="#6A9E3E"></path>
                <path d="M176.342486,137.310941 C176.342486,137.310941 184.917333,113.233925 208.904303,124.030622 C208.904303,124.030622 201.728,146.855666 176.342486,137.310941" id="Fill-41" fill="#6A9E3E"></path>
                <path d="M160.499085,132.352007 C160.499085,132.352007 139.917146,117.22952 157.122652,97.3138899 C157.122652,97.3138899 176.906148,110.740604 160.499085,132.352007" id="Fill-42" fill="#6A9E3E"></path>
                <path d="M191.255986,110.268171 C191.255986,110.268171 201.304562,90.7367673 220.510097,102.675062 C220.510097,102.675062 211.794566,121.299005 191.255986,110.268171" id="Fill-43" fill="#6A9E3E"></path>
                <path d="M182.538609,104.650693 C182.538609,104.650693 163.794796,93.2259325 177.056058,74.8980107 C177.056058,74.8980107 194.988973,84.9280995 182.538609,104.650693" id="Fill-44" fill="#6A9E3E"></path>
                <path d="M208.273759,89.2594316 C208.273759,89.2594316 218.454256,75.6013499 231.623265,87.1900533 C231.623265,87.1900533 222.578393,100.32444 208.273759,89.2594316" id="Fill-45" fill="#6A9E3E"></path>
                <path d="M198.237636,86.7407105 C198.237636,86.7407105 186.046962,74.8490586 199.246876,63.2931439 C199.246876,63.2931439 211.066695,73.9923979 198.237636,86.7407105" id="Fill-46" fill="#6A9E3E"></path>
                <g id="Group-49" transform="translate(18.911712, 16.625222)">
                    <mask id="mask-4" fill="white">
                        <use xlink:href="#path-3"></use>
                    </mask>
                    <g id="Clip-48"></g>
                    <path d="M27.1692108,81.924476 C19.6128288,68.9267851 6.72795676,56.6074956 0.254154955,52.1898046 C7.1025009,58.1610302 16.4218234,74.4468206 26.7494631,91.0452575 C39.6324901,111.749201 64.5064649,119.441137 64.5064649,119.441137 C67.0683099,130.546323 71.3082234,142.08238 78.0790775,155.958437 C72.0379387,158.875702 58.7134847,165.136945 48.2866739,159.757762 C27.0538955,148.807744 17.3983135,153.905684 6.33680721,163.080497 C6.33680721,163.080497 22.1064072,152.900782 35.0143423,160.23389 C47.338782,167.233108 59.4252108,172.809485 82.596209,164.855702 C83.0344072,165.68373 83.4702991,166.513606 83.9223351,167.359645 C91.2863712,181.109165 90.4164324,201.106075 89.3241658,211.386927 C88.0736865,215.31556 85.1820396,220.206146 78.4992865,222.780746 C74.4019027,224.359218 70.0199207,224.180497 65.2684685,224.003623 C55.7692541,223.648028 44.801845,223.291048 31.7011027,236.975915 C31.7011027,236.975915 57.0109694,226.981847 69.1836541,230.882309 C81.3568,234.782309 84.5044468,228.812931 91.1839712,228.333108 C94.3514523,228.107744 100.900901,229.282131 101.612627,233.55389 C103.700757,246.105471 121.756829,243.045968 121.756829,243.045968 C121.756829,243.045968 109.434234,240.435808 113.699056,234.264618 C113.699056,234.264618 119.74942,223.070764 137.857614,229.857549 C155.965809,236.643872 165.29205,242.326465 174.800029,231.049947 C174.800029,231.049947 169.33685,235.130515 158.180324,231.876128 C147.023337,228.621741 138.599784,221.324654 122.760533,222.277371 C113.774703,222.816767 110.89182,219.396128 109.937009,215.231048 C110.174559,196.193783 102.700742,169.111297 102.700742,169.111297 C129.917002,157.984405 140.07951,141.729094 140.07951,141.729094 L143.902905,142.820355 C153.081081,145.726536 172.378407,148.623481 189.868512,130.731972 C207.356771,112.838615 223.6416,116.899325 223.6416,116.899325 C209.760404,112.523197 199.02178,119.260568 179.711539,130.966572 C160.399914,142.672575 145.009009,133.106146 145.009009,133.106146 C153.151193,126.416803 164.369528,106.56444 172.772786,89.5512966 C181.176505,72.54 196.262977,62.2088099 196.262977,62.2088099 C175.677348,70.5288099 148.607308,118.140675 132.075705,135.952753 C115.540411,153.762984 93.9999712,153.091972 93.9999712,153.091972 C85.3171892,141.31762 84.3388541,135.739858 75.1385369,118.459787 C65.934991,101.179716 69.6361514,73.6261812 69.6361514,73.6261812 L72.5277982,73.2114742 C84.4901477,71.2667851 98.5171027,56.5825577 101.835877,42.632611 C105.155114,28.6826643 114.423236,25.945968 114.423236,25.945968 C104.571157,25.7603197 96.697427,46.0384725 90.9764036,54.1201776 C85.2539964,62.20373 70.0595892,65.5661812 70.0595892,65.5661812 C66.2777081,51.8757726 75.6772901,0.393001776 75.6772901,0.393001776 C54.8342775,54.9662167 63.0594883,107.309805 63.0594883,107.309805 C63.0594883,107.309805 38.2108829,100.916483 27.1692108,81.924476 Z" id="Fill-47" fill="#5F3818" mask="url(#mask-4)"></path>
                </g>
            </g>
            <path d="M316.075,236 L316.075,198.6875 L317.95,198.6875 C318.375002,198.6875 318.681249,198.774999 318.86875,198.95 C319.056251,199.125001 319.1625,199.424998 319.1875,199.85 L319.4875,207.725 C320.687506,204.699985 322.28749,202.331259 324.2875,200.61875 C326.28751,198.906241 328.749985,198.05 331.675,198.05 C332.800006,198.05 333.837495,198.168749 334.7875,198.40625 C335.737505,198.643751 336.637496,198.987498 337.4875,199.4375 L337,201.9125 C336.925,202.312502 336.675002,202.5125 336.25,202.5125 C336.099999,202.5125 335.887501,202.462501 335.6125,202.3625 C335.337499,202.262499 334.993752,202.150001 334.58125,202.025 C334.168748,201.899999 333.662503,201.7875 333.0625,201.6875 C332.462497,201.5875 331.775004,201.5375 331,201.5375 C328.174986,201.5375 325.856259,202.412491 324.04375,204.1625 C322.231241,205.912509 320.762506,208.437483 319.6375,211.7375 L319.6375,236 L316.075,236 Z M359.9125,198.0875 C362.012511,198.0875 363.956241,198.449996 365.74375,199.175 C367.531259,199.900004 369.081243,200.956243 370.39375,202.34375 C371.706257,203.731257 372.731246,205.43749 373.46875,207.4625 C374.206254,209.48751 374.575,211.812487 374.575,214.4375 C374.575,214.987503 374.493751,215.362499 374.33125,215.5625 C374.168749,215.762501 373.912502,215.8625 373.5625,215.8625 L346.6,215.8625 L346.6,216.575 C346.6,219.375014 346.924997,221.837489 347.575,223.9625 C348.225003,226.087511 349.149994,227.868743 350.35,229.30625 C351.550006,230.743757 352.999992,231.824996 354.7,232.55 C356.400009,233.275004 358.299989,233.6375 360.4,233.6375 C362.275009,233.6375 363.899993,233.431252 365.275,233.01875 C366.650007,232.606248 367.806245,232.143753 368.74375,231.63125 C369.681255,231.118747 370.424997,230.656252 370.975,230.24375 C371.525003,229.831248 371.924999,229.625 372.175,229.625 C372.500002,229.625 372.749999,229.749999 372.925,230 L373.9,231.2 C373.299997,231.950004 372.506255,232.649997 371.51875,233.3 C370.531245,233.950003 369.431256,234.506248 368.21875,234.96875 C367.006244,235.431252 365.706257,235.799999 364.31875,236.075 C362.931243,236.350001 361.537507,236.4875 360.1375,236.4875 C357.587487,236.4875 355.262511,236.043754 353.1625,235.15625 C351.062489,234.268746 349.262507,232.975009 347.7625,231.275 C346.262493,229.574992 345.106254,227.493762 344.29375,225.03125 C343.481246,222.568738 343.075,219.750016 343.075,216.575 C343.075,213.899987 343.456246,211.431261 344.21875,209.16875 C344.981254,206.906239 346.081243,204.956258 347.51875,203.31875 C348.956257,201.681242 350.71874,200.400005 352.80625,199.475 C354.89376,198.549995 357.262487,198.0875 359.9125,198.0875 Z M359.95,200.75 C358.02499,200.75 356.300008,201.049997 354.775,201.65 C353.249992,202.250003 351.931256,203.112494 350.81875,204.2375 C349.706244,205.362506 348.806253,206.712492 348.11875,208.2875 C347.431247,209.862508 346.975001,211.62499 346.75,213.575 L371.35,213.575 C371.35,211.57499 371.075003,209.781258 370.525,208.19375 C369.974997,206.606242 369.200005,205.262506 368.2,204.1625 C367.199995,203.062495 366.000007,202.218753 364.6,201.63125 C363.199993,201.043747 361.650009,200.75 359.95,200.75 Z M398.2375,198.0875 C400.337511,198.0875 402.281241,198.449996 404.06875,199.175 C405.856259,199.900004 407.406243,200.956243 408.71875,202.34375 C410.031257,203.731257 411.056246,205.43749 411.79375,207.4625 C412.531254,209.48751 412.9,211.812487 412.9,214.4375 C412.9,214.987503 412.818751,215.362499 412.65625,215.5625 C412.493749,215.762501 412.237502,215.8625 411.8875,215.8625 L384.925,215.8625 L384.925,216.575 C384.925,219.375014 385.249997,221.837489 385.9,223.9625 C386.550003,226.087511 387.474994,227.868743 388.675,229.30625 C389.875006,230.743757 391.324992,231.824996 393.025,232.55 C394.725009,233.275004 396.624989,233.6375 398.725,233.6375 C400.600009,233.6375 402.224993,233.431252 403.6,233.01875 C404.975007,232.606248 406.131245,232.143753 407.06875,231.63125 C408.006255,231.118747 408.749997,230.656252 409.3,230.24375 C409.850003,229.831248 410.249999,229.625 410.5,229.625 C410.825002,229.625 411.074999,229.749999 411.25,230 L412.225,231.2 C411.624997,231.950004 410.831255,232.649997 409.84375,233.3 C408.856245,233.950003 407.756256,234.506248 406.54375,234.96875 C405.331244,235.431252 404.031257,235.799999 402.64375,236.075 C401.256243,236.350001 399.862507,236.4875 398.4625,236.4875 C395.912487,236.4875 393.587511,236.043754 391.4875,235.15625 C389.38749,234.268746 387.587508,232.975009 386.0875,231.275 C384.587492,229.574992 383.431254,227.493762 382.61875,225.03125 C381.806246,222.568738 381.4,219.750016 381.4,216.575 C381.4,213.899987 381.781246,211.431261 382.54375,209.16875 C383.306254,206.906239 384.406243,204.956258 385.84375,203.31875 C387.281257,201.681242 389.04374,200.400005 391.13125,199.475 C393.21876,198.549995 395.587487,198.0875 398.2375,198.0875 Z M398.275,200.75 C396.34999,200.75 394.625008,201.049997 393.1,201.65 C391.574992,202.250003 390.256256,203.112494 389.14375,204.2375 C388.031244,205.362506 387.131253,206.712492 386.44375,208.2875 C385.756247,209.862508 385.300001,211.62499 385.075,213.575 L409.675,213.575 C409.675,211.57499 409.400003,209.781258 408.85,208.19375 C408.299997,206.606242 407.525005,205.262506 406.525,204.1625 C405.524995,203.062495 404.325007,202.218753 402.925,201.63125 C401.524993,201.043747 399.975009,200.75 398.275,200.75 Z" id="ree" fill="#5F3818"></path>
            <path d="M32.675,182.9375 L32.675,186.125 L4.7375,186.125 L4.7375,207.575 L27.9875,207.575 L27.9875,210.6875 L4.7375,210.6875 L4.7375,232.8125 L32.675,232.8125 L32.675,236 L0.875,236 L0.875,182.9375 L32.675,182.9375 Z M53.6,236.6 C51.0749874,236.6 49.1062571,235.900007 47.69375,234.5 C46.2812429,233.099993 45.575,230.937515 45.575,228.0125 L45.575,202.5125 L40.2125,202.5125 C39.9374986,202.5125 39.7125009,202.437501 39.5375,202.2875 C39.3624991,202.137499 39.275,201.925001 39.275,201.65 L39.275,200.2625 L45.65,199.8125 L46.55,186.4625 C46.5750001,186.237499 46.6687492,186.037501 46.83125,185.8625 C46.9937508,185.687499 47.2124986,185.6 47.4875,185.6 L49.175,185.6 L49.175,199.85 L60.9125,199.85 L60.9125,202.5125 L49.175,202.5125 L49.175,227.825 C49.175,228.850005 49.3062487,229.731246 49.56875,230.46875 C49.8312513,231.206254 50.1937477,231.812498 50.65625,232.2875 C51.1187523,232.762502 51.6624969,233.112499 52.2875,233.3375 C52.9125031,233.562501 53.5874964,233.675 54.3125,233.675 C55.2125045,233.675 55.9874967,233.543751 56.6375,233.28125 C57.2875032,233.018749 57.8499976,232.731252 58.325,232.41875 C58.8000024,232.106248 59.1874985,231.818751 59.4875,231.55625 C59.7875015,231.293749 60.0249991,231.1625 60.2,231.1625 C60.400001,231.1625 60.599999,231.287499 60.8,231.5375 L61.775,233.1125 C60.8249952,234.162505 59.6187573,235.006247 58.15625,235.64375 C56.6937427,236.281253 55.1750079,236.6 53.6,236.6 Z M70.1375,236 L70.1375,181.4375 L73.7,181.4375 L73.7,205.0625 C75.4250086,202.937489 77.3937389,201.243756 79.60625,199.98125 C81.8187611,198.718744 84.2999863,198.0875 87.05,198.0875 C89.1000102,198.0875 90.9062422,198.412497 92.46875,199.0625 C94.0312578,199.712503 95.3249949,200.649994 96.35,201.875 C97.3750051,203.100006 98.1499974,204.574991 98.675,206.3 C99.2000026,208.025009 99.4625,209.974989 99.4625,212.15 L99.4625,236 L95.9,236 L95.9,212.15 C95.9,208.649983 95.100008,205.90626 93.5,203.91875 C91.899992,201.93124 89.4500165,200.9375 86.15,200.9375 C83.6999877,200.9375 81.4250105,201.568744 79.325,202.83125 C77.2249895,204.093756 75.3500083,205.824989 73.7,208.025 L73.7,236 L70.1375,236 Z M115.325,198.6875 L115.325,236 L111.7625,236 L111.7625,198.6875 L115.325,198.6875 Z M116.9,185.825 C116.9,186.275002 116.806251,186.693748 116.61875,187.08125 C116.431249,187.468752 116.187502,187.812499 115.8875,188.1125 C115.587499,188.412502 115.237502,188.649999 114.8375,188.825 C114.437498,189.000001 114.012502,189.0875 113.5625,189.0875 C113.112498,189.0875 112.687502,189.000001 112.2875,188.825 C111.887498,188.649999 111.537502,188.412502 111.2375,188.1125 C110.937499,187.812499 110.700001,187.468752 110.525,187.08125 C110.349999,186.693748 110.2625,186.275002 110.2625,185.825 C110.2625,185.374998 110.349999,184.943752 110.525,184.53125 C110.700001,184.118748 110.937499,183.762501 111.2375,183.4625 C111.537502,183.162498 111.887498,182.925001 112.2875,182.75 C112.687502,182.574999 113.112498,182.4875 113.5625,182.4875 C114.012502,182.4875 114.437498,182.574999 114.8375,182.75 C115.237502,182.925001 115.587499,183.162498 115.8875,183.4625 C116.187502,183.762501 116.431249,184.118748 116.61875,184.53125 C116.806251,184.943752 116.9,185.374998 116.9,185.825 Z M153.0875,203.675 C152.962499,203.800001 152.843751,203.90625 152.73125,203.99375 C152.618749,204.08125 152.462501,204.125 152.2625,204.125 C152.012499,204.125 151.668752,203.956252 151.23125,203.61875 C150.793748,203.281248 150.212504,202.912502 149.4875,202.5125 C148.762496,202.112498 147.856255,201.743752 146.76875,201.40625 C145.681245,201.068748 144.362508,200.9 142.8125,200.9 C140.662489,200.9 138.756258,201.281246 137.09375,202.04375 C135.431242,202.806254 134.031256,203.899993 132.89375,205.325 C131.756244,206.750007 130.887503,208.47499 130.2875,210.5 C129.687497,212.52501 129.3875,214.799987 129.3875,217.325 C129.3875,219.950013 129.693747,222.27499 130.30625,224.3 C130.918753,226.32501 131.787494,228.031243 132.9125,229.41875 C134.037506,230.806257 135.399992,231.862496 137,232.5875 C138.600008,233.312504 140.37499,233.675 142.325,233.675 C144.125009,233.675 145.631244,233.462502 146.84375,233.0375 C148.056256,232.612498 149.056246,232.150002 149.84375,231.65 C150.631254,231.149997 151.256248,230.687502 151.71875,230.2625 C152.181252,229.837498 152.549999,229.625 152.825,229.625 C153.150002,229.625 153.399999,229.749999 153.575,230 L154.55,231.2 C153.974997,231.950004 153.250004,232.649997 152.375,233.3 C151.499996,233.950003 150.512506,234.512498 149.4125,234.9875 C148.312495,235.462502 147.118756,235.831249 145.83125,236.09375 C144.543744,236.356251 143.200007,236.4875 141.8,236.4875 C139.424988,236.4875 137.25626,236.056254 135.29375,235.19375 C133.33124,234.331246 131.643757,233.081258 130.23125,231.44375 C128.818743,229.806242 127.718754,227.800012 126.93125,225.425 C126.143746,223.049988 125.75,220.350015 125.75,217.325 C125.75,214.474986 126.124996,211.875012 126.875,209.525 C127.625004,207.174988 128.718743,205.150009 130.15625,203.45 C131.593757,201.749991 133.35624,200.431255 135.44375,199.49375 C137.53126,198.556245 139.924987,198.0875 142.625,198.0875 C145.050012,198.0875 147.206241,198.474996 149.09375,199.25 C150.981259,200.025004 152.624993,201.074993 154.025,202.4 L153.0875,203.675 Z M186.4625,236 C185.712496,236 185.250001,235.650003 185.075,234.95 L184.55,230.1875 C183.524995,231.187505 182.506255,232.087496 181.49375,232.8875 C180.481245,233.687504 179.425005,234.362497 178.325,234.9125 C177.224994,235.462503 176.037506,235.881249 174.7625,236.16875 C173.487494,236.456251 172.087508,236.6 170.5625,236.6 C169.287494,236.6 168.050006,236.412502 166.85,236.0375 C165.649994,235.662498 164.587505,235.087504 163.6625,234.3125 C162.737495,233.537496 161.993753,232.543756 161.43125,231.33125 C160.868747,230.118744 160.5875,228.662509 160.5875,226.9625 C160.5875,225.387492 161.037495,223.925007 161.9375,222.575 C162.837504,221.224993 164.24374,220.050005 166.15625,219.05 C168.06876,218.049995 170.531235,217.250003 173.54375,216.65 C176.556265,216.049997 180.174979,215.7 184.4,215.6 L184.4,211.7 C184.4,208.249983 183.656257,205.593759 182.16875,203.73125 C180.681243,201.868741 178.475015,200.9375 175.55,200.9375 C173.749991,200.9375 172.218756,201.187498 170.95625,201.6875 C169.693744,202.187502 168.625004,202.737497 167.75,203.3375 C166.874996,203.937503 166.162503,204.487497 165.6125,204.9875 C165.062497,205.487503 164.600002,205.7375 164.225,205.7375 C163.724998,205.7375 163.350001,205.512502 163.1,205.0625 L162.4625,203.975 C164.41251,202.02499 166.462489,200.550005 168.6125,199.55 C170.762511,198.549995 173.199986,198.05 175.925,198.05 C177.92501,198.05 179.674992,198.368747 181.175,199.00625 C182.675007,199.643753 183.918745,200.556244 184.90625,201.74375 C185.893755,202.931256 186.637497,204.368742 187.1375,206.05625 C187.637502,207.743758 187.8875,209.62499 187.8875,211.7 L187.8875,236 L186.4625,236 Z M171.4625,234.0125 C172.912507,234.0125 174.243744,233.856252 175.45625,233.54375 C176.668756,233.231248 177.793745,232.793753 178.83125,232.23125 C179.868755,231.668747 180.837496,231.000004 181.7375,230.225 C182.637505,229.449996 183.524996,228.612505 184.4,227.7125 L184.4,218 C180.849982,218.100001 177.793763,218.368748 175.23125,218.80625 C172.668737,219.243752 170.556258,219.837496 168.89375,220.5875 C167.231242,221.337504 166.006254,222.231245 165.21875,223.26875 C164.431246,224.306255 164.0375,225.487493 164.0375,226.8125 C164.0375,228.062506 164.243748,229.143745 164.65625,230.05625 C165.068752,230.968755 165.612497,231.718747 166.2875,232.30625 C166.962503,232.893753 167.749996,233.324999 168.65,233.6 C169.550005,233.875001 170.487495,234.0125 171.4625,234.0125 Z M203.75,181.4375 L203.75,236 L200.1875,236 L200.1875,181.4375 L203.75,181.4375 Z" id="Ethical" fill="#6A9E3E"></path>
        </g>
    </g>
</svg>