<?xml version="1.0" encoding="utf-8"?>
<!-- Generator: Adobe Illustrator 18.0.0, SVG Export Plug-In . SVG Version: 6.00 Build 0)  -->
<!DOCTYPE svg PUBLIC "-//W3C//DTD SVG 1.1//EN" "http://www.w3.org/Graphics/SVG/1.1/DTD/svg11.dtd">
<svg version="1.1" id="Layer_1" xmlns="http://www.w3.org/2000/svg" xmlns:xlink="http://www.w3.org/1999/xlink" x="0px" y="0px"
	 viewBox="0 0 512 512" enable-background="new 0 0 512 512" xml:space="preserve">
<g>
	<circle fill="#84DBFF" cx="256" cy="256" r="252.5"/>
	<g>
		<path fill="#324A5E" d="M367.2,446H144.8c-3.9,0-7-3.1-7-7V73.1c0-3.9,3.1-7,7-7h222.5c3.9,0,7,3.1,7,7v365.9
			C374.3,442.8,371.1,446,367.2,446z"/>
		<rect x="150.2" y="102.2" fill="#FFFFFF" width="211.7" height="300.2"/>
		<circle fill="#2B3B4E" cx="331.9" cy="84.8" r="8.5"/>
		<circle fill="#2B3B4E" cx="256" cy="422.7" r="13.3"/>
		<g>
			<path fill="#2B3B4E" d="M296.7,89.3h-59.8c-2.5,0-4.4-2-4.4-4.4l0,0c0-2.5,2-4.4,4.4-4.4h59.8c2.5,0,4.4,2,4.4,4.4l0,0
				C301.1,87.3,299.1,89.3,296.7,89.3z"/>
			<path fill="#2B3B4E" d="M220.7,89.3h-5.3c-2.5,0-4.4-2-4.4-4.4l0,0c0-2.5,2-4.4,4.4-4.4h5.3c2.5,0,4.4,2,4.4,4.4l0,0
				C225.1,87.3,223.1,89.3,220.7,89.3z"/>
		</g>
	</g>
	<g>
		<polygon fill="#324A5E" points="196.9,270.1 191.2,264.6 234.4,219.6 276.2,251.1 315.9,220.1 320.8,226.3 276.3,261 235.3,230.1 
					"/>
	</g>
	<g>
		<rect x="304.1" y="265.7" fill="#4CDBC4" width="28.5" height="101.9"/>
		<rect x="262.5" y="294.9" fill="#FFD05B" width="28.5" height="72.8"/>
		<rect x="220.9" y="263.4" fill="#E6E9EE" width="28.5" height="104.3"/>
		<rect x="179.3" y="306.1" fill="#54C0EB" width="28.5" height="61.5"/>
	</g>
	<circle fill="#FF7058" cx="194" cy="265.7" r="14.7"/>
	<circle fill="#FF7058" cx="234.8" cy="224.9" r="14.7"/>
	<circle fill="#FF7058" cx="276.2" cy="256" r="14.7"/>
	<circle fill="#FF7058" cx="318" cy="224.5" r="14.7"/>
</g>
</svg>
