<?xml version="1.0" encoding="utf-8"?>
<!-- Generator: Adobe Illustrator 18.0.0, SVG Export Plug-In . SVG Version: 6.00 Build 0)  -->
<!DOCTYPE svg PUBLIC "-//W3C//DTD SVG 1.1//EN" "http://www.w3.org/Graphics/SVG/1.1/DTD/svg11.dtd">
<svg version="1.1" id="Layer_1" xmlns="http://www.w3.org/2000/svg" xmlns:xlink="http://www.w3.org/1999/xlink" x="0px" y="0px"
	 viewBox="0 0 512 512" enable-background="new 0 0 512 512" xml:space="preserve">
<g>
	<circle fill="#324A5E" cx="256" cy="256" r="252.5"/>
	<g>
		<path fill="#FFFFFF" d="M388.6,93.1H164.9c-9.3,0-16.9,7.6-16.9,16.9V402c0,9.3,7.6,16.9,16.9,16.9h174.8V353h65.9V110
			C405.5,100.7,398,93.1,388.6,93.1z"/>
		<polygon fill="#ACB3BA" points="339.7,418.9 405.5,353 339.7,353 		"/>
		
			<rect x="199.6" y="259.4" transform="matrix(0.7071 0.7071 -0.7071 0.7071 273.6235 -59.7271)" fill="#2C9984" width="18.6" height="82.1"/>
		<circle fill="#4CDBC4" cx="278.8" cy="230.6" r="103"/>
		<circle fill="#FFFFFF" cx="278.8" cy="230.6" r="80.9"/>
		<path fill="#FF7058" d="M131,405l-26.7-26.7c-0.9-0.9-0.9-2.4,0-3.3l74.3-74.3c0.9-0.9,2.4-0.9,3.3,0l26.7,26.7
			c0.9,0.9,0.9,2.4,0,3.3L134.3,405C133.4,405.9,131.9,405.9,131,405z"/>
		<path fill="#E6E9EE" d="M305.1,300.7c-1.2,2.9-3.4,5.3-5.7,7.4c-0.4,0.3-0.7,0.7-1.1,1c-3.5,0.9-7.1,1.5-10.8,1.9
			c-2.3,0.3-4.5,0.4-6.8,0.4h-0.1c-1.2,0-2.3,0-3.5,0h-0.1c-2.3,0-4.6-0.2-6.8-0.4c-3-0.3-6-0.8-9-1.5c-1.2-4.2-1.2-8.8-1.2-13.2v-2
			c0-9.3,0-18.6,0.1-27.8c0-1.9,0-3.7,0.5-5.5c0.1-0.4,0.2-0.7,0.4-1c0.6-1.7,1.6-3.1,2.9-4.3c0.5-0.4,0.9-0.8,1.5-1.2
			c0.6-0.5,1.2-0.9,1.9-1.2c1.1-0.6,2.2-1.1,3.4-1.5c0.8-0.3,1.7-0.5,2.6-0.7c2.2-0.4,4.5-0.5,6.7,0c2,0.4,3.9,1.4,5.7,2.5
			c0.1,0.1,0.3,0.1,0.4,0.3c1.1,0.7,2.2,1.4,3.2,2.1c1,0.7,1.9,1.5,2.8,2.3c0.7,0.6,1.3,1.2,1.9,1.9c0.9,1,1.8,2,2.6,3.1
			c1,1.3,1.9,2.8,2.6,4.3c0.2,0.4,0.4,0.9,0.5,1.3c0.1,0.1,0.1,0.2,0.1,0.3c0.8,2,1.3,4,2,6.1c0.4,1.6,0.9,3.2,1.3,4.8
			c0.4,1.5,0.9,3,1.3,4.5C305.7,289.9,307.2,295.6,305.1,300.7z"/>
		<path fill="#F9B54C" d="M278.8,220c-7.6,0-13.7,14.8-13.7,24.4c0,5.6,2.1,10.6,5.4,13.8c0.4,0,1-0.1,1.2-0.1
			c0.6,0,1.3,0.1,1.9,0.3c0.6,0.2,1.2,0.4,1.7,0.7c0.1,0.1,0.5,0.3,0.7,0.5c0.1,0,0.2,0.1,0.4,0.2c0.4,0.2,0.7,0.4,1.1,0.6
			c0.3,0.2,0.6,0.4,0.8,0.6c0.2,0.1,0.3,0.2,0.5,0.3l0,0c0.4-0.3,0.9-0.6,1.3-0.9c0.2-0.2,0.5-0.3,0.7-0.4c0.4-0.2,0.6-0.3,0.8-0.4
			c0.2-0.3,1.8-0.8,1.9-0.9c1-0.3,1.9-0.3,2.9-0.1c0,0,0.1,0,0.1,0c3.6-3.1,6-8.4,6-14.3C292.5,234.8,286.3,220,278.8,220z"/>
		<path fill="#324A5E" d="M242.3,286.6l-2.4,15c-1.1-0.6-2.2-1.2-3.3-1.9c-5.3-3.2-10.3-7.1-14.9-11.7c3.3-17.9,6.8-23.6,6.8-23.6
			s0,0,0,0.1c0,0,0,0.1,0.1,0.1L242.3,286.6z"/>
		<path fill="#2B3B4E" d="M276.4,309.9c0.2,0.5,0.4,1,0.6,1.5h-0.1c-2.3,0-4.6-0.2-6.8-0.4c-3-0.3-6-0.8-9-1.5
			c-7.3-1.6-14.4-4.3-21.1-7.9c-1.1-0.6-2.2-1.2-3.3-1.9c-1.7-18.8-7.2-33.3-7.9-35.1c0-0.1-0.1-0.1-0.1-0.1c0,0,0-0.1,0-0.1
			c2.9-3.3,16.3-6.6,24.9-8.4c4.3-0.9,7.3-1.5,7.3-1.5l-0.3,4.7l0.1,0.8l2.9,18.2c0,0,7.3,17.2,12.8,31.7
			C276.4,309.9,276.4,309.9,276.4,309.9z"/>
		<path fill="#324A5E" d="M276.4,309.9c0.1,0.5,0.3,1,0.4,1.5c-2.3,0-4.6-0.2-6.8-0.4c-3.3-4-6.9-9.5-10.2-16.7
			c-2.9-6.3-5.5-14-7.4-23.1l5.9-2l-8.6-7.2c0,0,1.2-2.7,3.8-6c2.3-3,5.8-6.5,10.4-9.1c0,0,0,0,0,0.1v0c0.1,0.6,0.5,3.4,1.2,7.5
			c0.4,2.4,0.9,5.3,1.4,8.5c0,0,0,0,0,0c2.5,14,6.2,33.9,9.9,46.9C276.4,309.9,276.4,309.9,276.4,309.9z"/>
		<path fill="#FFFFFF" d="M278.8,261.3c0,0-9.9-6.8-14.4,5.9c0,0-2.2-21.5,1-25.5C265.3,241.7,268.5,252.7,278.8,261.3z"/>
		<path fill="#2B3B4E" d="M335.8,288c-4.6,4.6-9.6,8.5-14.9,11.7c-1.1,0.7-2.2,1.3-3.3,1.9l-2.4-15l13.7-22c0-0.1,0.1-0.1,0.1-0.1
			c0,0,0-0.1,0-0.1S332.5,270.1,335.8,288z"/>
		<path fill="#324A5E" d="M328.9,264.4C328.9,264.4,328.9,264.4,328.9,264.4c0,0.1-0.1,0.1-0.1,0.2c-0.7,1.8-6.2,16.3-8,35.1
			c-1.1,0.7-2.2,1.3-3.3,1.9c-6.1,3.4-12.6,5.9-19.3,7.5c-3.5,0.9-7.1,1.5-10.8,1.9c-2.3,0.3-4.5,0.4-6.8,0.4h-0.1
			c0.2-0.5,0.4-1,0.6-1.5c0,0,0-0.1,0-0.1c5.5-14.4,12.8-31.7,12.8-31.7l2.4-14.9l0.7-4.1l-0.3-4.7c0,0,3.1,0.5,7.3,1.5
			C312.6,257.7,326.1,261,328.9,264.4z"/>
		<path fill="#2B3B4E" d="M299.6,269.2l5.5,1.9c-0.7,3.2-1.4,6.1-2.2,8.9c-4.2,14.7-10.2,24.6-15.4,30.9c-2.3,0.3-4.5,0.4-6.8,0.4
			c0.1-0.5,0.3-1,0.4-1.5c0,0,0-0.1,0-0.1c3.7-13,7.4-32.9,9.9-46.8c0.3-1.7,0.5-3.3,0.8-4.7c1.1-6.3,1.7-10.6,1.9-11.4v0
			c0,0,0-0.1,0-0.1c4.6,2.6,8,6.1,10.4,9.1c2.5,3.3,3.8,6,3.8,6l-8.4,7l-0.2,0.2L299.6,269.2z"/>
		<path fill="#FFFFFF" d="M278.8,261.3c0,0,9.9-6.8,14.4,5.9c0,0,2.2-21.5-1-25.5C292.2,241.7,289,252.7,278.8,261.3z"/>
		<g>
			<path fill="#F9B54C" d="M305.9,214.8c-1.9,4.6-6.4,9.4-9.2,8.6c-2.8-0.8-2.9-7-1-11.6c1.9-4.6,5-5.8,7.8-5
				C306.3,207.6,307.8,210.2,305.9,214.8z"/>
			<path fill="#F9B54C" d="M251.6,214.8c1.9,4.6,6.4,9.4,9.2,8.6c2.8-0.8,2.9-7,1-11.6c-1.9-4.6-5-5.8-7.8-5
				C251.2,207.6,249.7,210.2,251.6,214.8z"/>
		</g>
		<ellipse fill="#FFD05B" cx="278.8" cy="215" rx="22.1" ry="28.6"/>
		<path fill="#FFD05B" d="M290.1,206.3l-4.2-17.2c0,0,5.6-6.7,7.1-6.5c1.5,0.2,10,9.2,10,9.2v12.8v5.3l-2.3,4.7l-9.2-4L290.1,206.3z
			"/>
		<polygon fill="#FFD05B" points="273.6,191 259.7,188.4 255.1,193 254.2,203.2 256.9,214.3 274.7,209.5 		"/>
		<path fill="#324A5E" d="M275.2,174.4c0,0,7.1-11.8,20.3,0c0,0-3.6-0.6-5.4,0c0,0,22,1.5,16.3,26.9c0,0,0.2,7-5.7,13.5
			c0,0,6.8-29.1-11.1-22c0,0-11.7,6.6-20.1-0.3c0,0-16.1-4.6-12.6,21.9c0,0-18.7-33.6,2-37.9c0,0,5.4-11.7,25.1-8.6
			C284,167.8,277.1,167.8,275.2,174.4z"/>
	</g>
</g>
</svg>
