<?xml version="1.0" encoding="utf-8"?>
<!-- Generator: Adobe Illustrator 18.0.0, SVG Export Plug-In . SVG Version: 6.00 Build 0)  -->
<!DOCTYPE svg PUBLIC "-//W3C//DTD SVG 1.1//EN" "http://www.w3.org/Graphics/SVG/1.1/DTD/svg11.dtd">
<svg version="1.1" id="Layer_1" xmlns="http://www.w3.org/2000/svg" xmlns:xlink="http://www.w3.org/1999/xlink" x="0px" y="0px"
	 viewBox="0 0 512 512" enable-background="new 0 0 512 512" xml:space="preserve">
<g>
	<circle fill="#FD8469" cx="256" cy="256" r="252.5"/>
	<g>
		<circle fill="#E6E9EE" cx="358.9" cy="331.7" r="60.9"/>
		<g>
			<g>
				<path fill="#324A5E" d="M153.1,348.4c-5,0-9-4-9-9V151.1c0-5,4-9,9-9h205.7c5,0,9,4,9,9v180.6c0,5-4,9-9,9s-9-4-9-9V160.1H162.1
					v179.3C162.1,344.3,158.1,348.4,153.1,348.4z"/>
			</g>
			<g>
				<circle fill="#FFFFFF" cx="256" cy="151.1" r="60.9"/>
			</g>
			<g>
				<circle fill="#FFFFFF" cx="358.9" cy="331.7" r="60.9"/>
			</g>
			<g>
				<circle fill="#FFD05B" cx="358.9" cy="331.7" r="33.3"/>
			</g>
			<g>
				<circle fill="#FFFFFF" cx="153.1" cy="331.7" r="60.9"/>
			</g>
			<g>
				<circle fill="#FFD05B" cx="153.1" cy="331.7" r="33.3"/>
			</g>
			<g>
				<circle fill="#54C0EB" cx="256" cy="151.1" r="33.3"/>
			</g>
		</g>
	</g>
</g>
</svg>
